<svg xmlns="http://www.w3.org/2000/svg" width="100" height="100" viewBox="0 0 100 100" fill="none">
  <circle cx="50" cy="50" r="45" stroke="#E2E8F0" stroke-width="10"/>
  <mask id="path-2-inside-1_5811_136530" fill="white">
    <path d="M83.1681 80.4217C85.2005 82.2857 88.382 82.1625 90.0342 79.9545C96.3943 71.4546 99.9111 61.1094 99.9983 50.4075C100.086 39.7055 96.7379 29.3044 90.5171 20.702C88.9012 18.4673 85.722 18.2923 83.6596 20.123C81.5971 21.9536 81.4391 25.0949 82.9988 27.3691C87.6084 34.0903 90.0791 42.0971 90.0121 50.3261C89.945 58.5551 87.3441 66.5205 82.6256 73.1657C81.029 75.4143 81.1358 78.5576 83.1681 80.4217Z"/>
  </mask>
  <path d="M83.1681 80.4217C85.2005 82.2857 88.382 82.1625 90.0342 79.9545C96.3943 71.4546 99.9111 61.1094 99.9983 50.4075C100.086 39.7055 96.7379 29.3044 90.5171 20.702C88.9012 18.4673 85.722 18.2923 83.6596 20.123C81.5971 21.9536 81.4391 25.0949 82.9988 27.3691C87.6084 34.0903 90.0791 42.0971 90.0121 50.3261C89.945 58.5551 87.3441 66.5205 82.6256 73.1657C81.029 75.4143 81.1358 78.5576 83.1681 80.4217Z" stroke="#1890FF" stroke-width="20" stroke-linejoin="round" mask="url(#path-2-inside-1_5811_136530)"/>
</svg>